<svg xmlns="http://www.w3.org/2000/svg" xmlns:xlink="http://www.w3.org/1999/xlink" viewBox="0,0,255.98729,255.98729" width="120px" height="120px" fill-rule="nonzero"><g fill="#ffffff" fill-rule="nonzero" stroke="none" stroke-width="1" stroke-linecap="butt" stroke-linejoin="miter" stroke-miterlimit="10" stroke-dasharray="" stroke-dashoffset="0" font-family="none" font-weight="none" font-size="none" text-anchor="none" style="mix-blend-mode: normal"><g transform="scale(10.66667,10.66667)"><path d="M12,1.99219c-5.5144,0 -10,4.48474 -10,10.00781c0,4.59916 3.12057,8.49035 7.36719,9.64258c0.15025,0.04072 0.3109,0.00915 0.43456,-0.08542c0.12366,-0.09456 0.19623,-0.24133 0.19629,-0.397v-3.57617c0.01158,-0.06131 0.01158,-0.12424 0,-0.18555v-0.39844c0,-0.53656 0.20669,-1.01098 0.55273,-1.37891c0.12077,-0.12889 0.16459,-0.31193 0.11527,-0.48153c-0.04932,-0.1696 -0.18445,-0.30061 -0.3555,-0.34464c-1.99135,-0.50642 -3.31055,-1.84957 -3.31055,-3.30273c0,-0.75941 0.36158,-1.49615 1.01563,-2.09961c0.12828,-0.11784 0.18599,-0.29394 0.15234,-0.46484c-0.1013,-0.50839 -0.08532,-1.04946 -0.09375,-1.58398c0.53854,0.23879 1.08837,0.44858 1.56641,0.83203c0.12733,0.1021 0.29647,0.13564 0.45313,0.08984c0.58981,-0.17304 1.23151,-0.27344 1.90625,-0.27344c0.67367,0 1.31494,0.0996 1.9043,0.27344c0.15693,0.04702 0.32694,0.01418 0.45508,-0.08789c0.47768,-0.38316 1.02756,-0.59524 1.56641,-0.83398c-0.0088,0.53483 0.0081,1.07616 -0.09375,1.58398c-0.03485,0.17119 0.02216,0.34815 0.15039,0.4668c0.65524,0.60375 1.01953,1.33939 1.01953,2.09961c0,1.4518 -1.32096,2.79339 -3.3125,3.30078c-0.17182,0.04367 -0.30768,0.17506 -0.35707,0.34532c-0.04939,0.17027 -0.00494,0.35396 0.11684,0.4828c0.34541,0.36731 0.55273,0.84139 0.55273,1.37695l-0.00391,4.16016c-0.0001,0.15612 0.07273,0.30334 0.19689,0.39799c0.12416,0.09465 0.2854,0.12588 0.43593,0.08443c4.24757,-1.15221 7.36914,-5.04334 7.36914,-9.64258c0,-5.52307 -4.4856,-10.00781 -10,-10.00781zM12,2.99219c4.9736,0 9,4.02488 9,9.00781c0,3.89973 -2.52964,7.14508 -6.00195,8.38867l0.00391,-3.38867c0,-0.57849 -0.31297,-1.03556 -0.59766,-1.49414c2.0283,-0.69244 3.59766,-2.13669 3.59766,-4.01172c0,-0.98792 -0.47321,-1.8847 -1.17578,-2.61328c0.13683,-0.78431 0.2065,-1.58589 0.14453,-2.42383c-0.01183,-0.15381 -0.09398,-0.29355 -0.22263,-0.37867c-0.12865,-0.08513 -0.28938,-0.10612 -0.43557,-0.05687c-0.82097,0.27938 -1.60905,0.70005 -2.35156,1.25195c-0.61886,-0.1632 -1.26863,-0.28125 -1.96094,-0.28125c-0.69382,0 -1.34386,0.11862 -1.96289,0.28125c-0.74217,-0.55173 -1.52763,-0.97453 -2.34766,-1.25391c-0.14643,-0.04998 -0.30776,-0.02936 -0.43691,0.05585c-0.12915,0.08521 -0.21158,0.22541 -0.22325,0.3797c-0.06388,0.83906 0.00871,1.63886 0.14453,2.42188c-0.70292,0.72922 -1.17383,1.62747 -1.17383,2.61523c0,1.87509 1.56631,3.32168 3.59375,4.01367c-0.28251,0.45665 -0.59077,0.91321 -0.59375,1.48633h-1.5c-0.27585,0 -0.49475,-0.14695 -0.76367,-0.47852c-0.26892,-0.33157 -0.5298,-0.81568 -0.80859,-1.2793c-0.09483,-0.16152 -0.27197,-0.25649 -0.45898,-0.24609c-0.17575,0.01025 -0.33316,0.11216 -0.41444,0.26832c-0.08128,0.15616 -0.07446,0.34356 0.01796,0.4934c0.25821,0.42939 0.52564,0.9474 0.88672,1.39258c0.36108,0.44518 0.87386,0.84961 1.54102,0.84961h1.49805v2.39648c-3.47016,-1.2442 -5.99805,-4.48972 -5.99805,-8.38867c0,-4.98293 4.0264,-9.00781 9,-9.00781z"></path></g></g></svg>