<svg height="24" viewBox="0 0 24 24" width="24" xmlns="http://www.w3.org/2000/svg"><g fill="none"><path d="m0 0h24v24h-24z"/><path d="m18 3c1.6569 0 3 1.34315 3 3v12c0 1.6569-1.3431 3-3 3h-12c-1.65685 0-3-1.3431-3-3v-12c0-1.65685 1.34315-3 3-3zm0 2h-12c-.55228 0-1 .44772-1 1v12c0 .5523.44772 1 1 1h12c.5523 0 1-.4477 1-1v-12c0-.55228-.4477-1-1-1zm-10 5c.51283143 0 .93550653.386027.9932722.8833761l.0067278.1166239v5c0 .5523-.44772 1-1 1-.51283143 0-.93550653-.386027-.9932722-.8833761l-.0067278-.1166239v-5c0-.5523.44772-1 1-1zm3-1c.4913 0 .8998.35427.9841.82128.2022-.11693.4109-.22236.6226-.31291.6672-.28542 1.6665-.44243 2.5682-.15888.4727.14861.9483.42958 1.3009.90611.3146667.4254222.4841086.9428148.5178776 1.5236631l.0063224.2207369v4c0 .5522-.4477 1-1 1-.51285 0-.9355092-.3861133-.9932725-.8833945l-.0067275-.1166055v-4c0-.3293-.0799-.4843-.132-.5549-.0537-.0725-.1406-.1398-.2929-.1877-.3483-.1095-.849-.0526-1.1818.0898-.501025.2142875-.9585625.5499266-1.2693775.8611422l-.1239225.1314578v3.6602c0 .5523-.4477 1-1 1-.51285 0-.9355092-.386027-.9932725-.8833761l-.0067275-.1166239v-6c0-.55228.4477-1 1-1zm-3-2c.55228 0 1 .44772 1 1s-.44772 1-1 1-1-.44772-1-1 .44772-1 1-1z" fill="#09244b"/></g></svg>